<svg xmlns="http://www.w3.org/2000/svg" xmlns:svg="http://www.w3.org/2000/svg" id="svg2" width="665.426" height="727.572" version="1.1"><defs id="defs4"><marker id="Arrow1Lend" orient="auto" refX="0" refY="0" style="overflow:visible"><path id="path3850" d="M 0,0 5,-5 -12.5,0 5,5 0,0 z" style="fill-rule:evenodd;stroke:#000;stroke-width:1pt" transform="matrix(-0.8,0,0,-0.8,-10,0)"/></marker><marker id="Arrow1Mend" orient="auto" refX="0" refY="0" style="overflow:visible"><path id="path3856" d="M 0,0 5,-5 -12.5,0 5,5 0,0 z" style="fill-rule:evenodd;stroke:#000;stroke-width:1pt" transform="matrix(-0.4,0,0,-0.4,-4,0)"/></marker><marker id="Arrow1Mend-5" orient="auto" refX="0" refY="0" style="overflow:visible"><path id="path3856-7" d="M 0,0 5,-5 -12.5,0 5,5 0,0 z" style="fill-rule:evenodd;stroke:#000;stroke-width:1pt" transform="matrix(-0.4,0,0,-0.4,-4,0)"/></marker><marker id="Arrow1Mend-0" orient="auto" refX="0" refY="0" style="overflow:visible"><path id="path3856-5" d="M 0,0 5,-5 -12.5,0 5,5 0,0 z" style="fill-rule:evenodd;stroke:#000;stroke-width:1pt" transform="matrix(-0.4,0,0,-0.4,-4,0)"/></marker><marker id="Arrow1Mend-58" orient="auto" refX="0" refY="0" style="overflow:visible"><path id="path3856-2" d="M 0,0 5,-5 -12.5,0 5,5 0,0 z" style="fill-rule:evenodd;stroke:#000;stroke-width:1pt" transform="matrix(-0.4,0,0,-0.4,-4,0)"/></marker><marker id="Arrow1Mend-9" orient="auto" refX="0" refY="0" style="overflow:visible"><path id="path3856-54" d="M 0,0 5,-5 -12.5,0 5,5 0,0 z" style="fill-rule:evenodd;stroke:#000;stroke-width:1pt" transform="matrix(-0.4,0,0,-0.4,-4,0)"/></marker><marker id="Arrow1Mend-3" orient="auto" refX="0" refY="0" style="overflow:visible"><path id="path3856-6" d="M 0,0 5,-5 -12.5,0 5,5 0,0 z" style="fill-rule:evenodd;stroke:#000;stroke-width:1pt" transform="matrix(-0.4,0,0,-0.4,-4,0)"/></marker><marker id="Arrow1Mend-03" orient="auto" refX="0" refY="0" style="overflow:visible"><path id="path3856-0" d="M 0,0 5,-5 -12.5,0 5,5 0,0 z" style="fill-rule:evenodd;stroke:#000;stroke-width:1pt" transform="matrix(-0.4,0,0,-0.4,-4,0)"/></marker><marker id="Arrow1Mend-2" orient="auto" refX="0" refY="0" style="overflow:visible"><path id="path3856-3" d="M 0,0 5,-5 -12.5,0 5,5 0,0 z" style="fill-rule:evenodd;stroke:#000;stroke-width:1pt" transform="matrix(-0.4,0,0,-0.4,-4,0)"/></marker><marker id="Arrow1Mend-4" orient="auto" refX="0" refY="0" style="overflow:visible"><path id="path3856-00" d="M 0,0 5,-5 -12.5,0 5,5 0,0 z" style="fill-rule:evenodd;stroke:#000;stroke-width:1pt" transform="matrix(-0.4,0,0,-0.4,-4,0)"/></marker></defs><metadata id="metadata7"/><g id="layer1" transform="translate(-100.28887,-156.34343)"><text xml:space="preserve" style="font-size:24px;font-style:normal;font-variant:normal;font-weight:400;font-stretch:normal;text-align:start;line-height:125%;letter-spacing:0;word-spacing:0;writing-mode:lr-tb;text-anchor:start;fill:#000;fill-opacity:1;stroke:none;font-family:DejaVu Sans;-inkscape-font-specification:Sans" id="text2985" x="267.69" y="469.658"><tspan id="tspan2987" x="267.69" y="469.658">Moon</tspan></text><text xml:space="preserve" style="font-size:24px;font-style:normal;font-variant:normal;font-weight:400;font-stretch:normal;text-align:start;line-height:125%;letter-spacing:0;word-spacing:0;writing-mode:lr-tb;text-anchor:start;fill:#000;fill-opacity:1;stroke:none;font-family:DejaVu Sans;-inkscape-font-specification:Sans" id="text2989" x="274.761" y="186.194"><tspan id="tspan2991" x="274.761" y="186.194">High</tspan></text><text xml:space="preserve" style="font-size:24px;font-style:normal;font-variant:normal;font-weight:400;font-stretch:normal;text-align:start;line-height:125%;letter-spacing:0;word-spacing:0;writing-mode:lr-tb;text-anchor:start;fill:#000;fill-opacity:1;stroke:none;font-family:DejaVu Sans;-inkscape-font-specification:Sans" id="text2993" x="384.868" y="398.792"><tspan id="tspan2995" x="384.868" y="398.792">Low</tspan></text><text xml:space="preserve" style="font-size:24px;font-style:normal;font-variant:normal;font-weight:400;font-stretch:normal;text-align:start;line-height:125%;letter-spacing:0;word-spacing:0;writing-mode:lr-tb;text-anchor:start;fill:#000;fill-opacity:1;stroke:none;font-family:DejaVu Sans;-inkscape-font-specification:Sans" id="text2997" x="380.828" y="275.01"><tspan id="tspan2999" x="380.828" y="275.01">Med</tspan></text><text xml:space="preserve" style="font-size:24px;font-style:normal;font-variant:normal;font-weight:400;font-stretch:normal;text-align:start;line-height:125%;letter-spacing:0;word-spacing:0;writing-mode:lr-tb;text-anchor:start;fill:#000;fill-opacity:1;stroke:none;font-family:DejaVu Sans;-inkscape-font-specification:Sans" id="text3001" x="161.624" y="276.02"><tspan id="tspan3003" x="161.624" y="276.02">Turbo</tspan></text><text xml:space="preserve" style="font-size:24px;font-style:normal;font-variant:normal;font-weight:400;font-stretch:normal;text-align:start;line-height:125%;letter-spacing:0;word-spacing:0;writing-mode:lr-tb;text-anchor:start;fill:#000;fill-opacity:1;stroke:none;font-family:DejaVu Sans;-inkscape-font-specification:Sans" id="text3005" x="131.32" y="400.269"><tspan id="tspan3007" x="131.32" y="400.269">Max Turbo</tspan></text><text xml:space="preserve" style="font-size:24px;font-style:normal;font-variant:normal;font-weight:400;font-stretch:normal;text-align:start;line-height:125%;letter-spacing:0;word-spacing:0;writing-mode:lr-tb;text-anchor:start;fill:#000;fill-opacity:1;stroke:none;font-family:DejaVu Sans;-inkscape-font-specification:Sans" id="text3009" x="196.358" y="555.289"><tspan id="tspan3011" x="196.358" y="555.289">Max Turbo</tspan></text><text xml:space="preserve" style="font-size:24px;font-style:normal;font-variant:normal;font-weight:400;font-stretch:normal;text-align:start;line-height:125%;letter-spacing:0;word-spacing:0;writing-mode:lr-tb;text-anchor:start;fill:#000;fill-opacity:1;stroke:none;font-family:DejaVu Sans;-inkscape-font-specification:Sans" id="text3013" x="165.549" y="698.031"><tspan id="tspan3015" x="165.549" y="698.031">24 Hz Strobe</tspan></text><text xml:space="preserve" style="font-size:24px;font-style:normal;font-variant:normal;font-weight:400;font-stretch:normal;text-align:start;line-height:125%;letter-spacing:0;word-spacing:0;writing-mode:lr-tb;text-anchor:start;fill:#000;fill-opacity:1;stroke:none;font-family:DejaVu Sans;-inkscape-font-specification:Sans" id="text3017" x="200.904" y="768.898"><tspan id="tspan3019" x="200.904" y="768.898">Battcheck</tspan></text><text xml:space="preserve" style="font-size:24px;font-style:normal;font-variant:normal;font-weight:400;font-stretch:normal;text-align:start;line-height:125%;letter-spacing:0;word-spacing:0;writing-mode:lr-tb;text-anchor:start;fill:#000;fill-opacity:1;stroke:none;font-family:DejaVu Sans;-inkscape-font-specification:Sans" id="text3021" x="115.391" y="627.165"><tspan id="tspan3023" x="115.391" y="627.165">Max Bike Flasher</tspan></text><text xml:space="preserve" style="font-size:24px;font-style:normal;font-variant:normal;font-weight:400;font-stretch:normal;text-align:start;line-height:125%;letter-spacing:0;word-spacing:0;writing-mode:lr-tb;text-anchor:start;fill:#000;fill-opacity:1;stroke:none;font-family:DejaVu Sans;-inkscape-font-specification:Sans" id="text3025" x="460.63" y="520.866"><tspan id="tspan3027" x="460.63" y="520.866">Dim Bike Flasher</tspan></text><text xml:space="preserve" style="font-size:24px;font-style:normal;font-variant:normal;font-weight:400;font-stretch:normal;text-align:start;line-height:125%;letter-spacing:0;word-spacing:0;writing-mode:lr-tb;text-anchor:start;fill:#000;fill-opacity:1;stroke:none;font-family:DejaVu Sans;-inkscape-font-specification:Sans" id="text3029" x="460.63" y="556.299"><tspan id="tspan3031" x="460.63" y="556.299">Med Bike Flasher</tspan></text><text xml:space="preserve" style="font-size:24px;font-style:normal;font-variant:normal;font-weight:400;font-stretch:normal;text-align:start;line-height:125%;letter-spacing:0;word-spacing:0;writing-mode:lr-tb;text-anchor:start;fill:#000;fill-opacity:1;stroke:none;font-family:DejaVu Sans;-inkscape-font-specification:Sans" id="text3033" x="460.63" y="591.732"><tspan id="tspan3035" x="460.63" y="591.732">Max Bike Flasher</tspan></text><text xml:space="preserve" style="font-size:24px;font-style:normal;font-variant:normal;font-weight:400;font-stretch:normal;text-align:start;line-height:125%;letter-spacing:0;word-spacing:0;writing-mode:lr-tb;text-anchor:start;fill:#000;fill-opacity:1;stroke:none;font-family:DejaVu Sans;-inkscape-font-specification:Sans" id="text3037" x="460.63" y="662.598"><tspan id="tspan3039" x="460.63" y="662.598">Heart Beacon</tspan></text><text xml:space="preserve" style="font-size:24px;font-style:normal;font-variant:normal;font-weight:400;font-stretch:normal;text-align:start;line-height:125%;letter-spacing:0;word-spacing:0;writing-mode:lr-tb;text-anchor:start;fill:#000;fill-opacity:1;stroke:none;font-family:DejaVu Sans;-inkscape-font-specification:Sans" id="text3041" x="460.63" y="697.838"><tspan id="tspan3043" x="460.63" y="697.838">12 Hz Strobe</tspan></text><text xml:space="preserve" style="font-size:24px;font-style:normal;font-variant:normal;font-weight:400;font-stretch:normal;text-align:start;line-height:125%;letter-spacing:0;word-spacing:0;writing-mode:lr-tb;text-anchor:start;fill:#000;fill-opacity:1;stroke:none;font-family:DejaVu Sans;-inkscape-font-specification:Sans" id="text3045" x="460.395" y="733.464"><tspan id="tspan3047" x="460.395" y="733.464">24 Hz Strobe</tspan></text><text xml:space="preserve" style="font-size:24px;font-style:normal;font-variant:normal;font-weight:400;font-stretch:normal;text-align:start;line-height:125%;letter-spacing:0;word-spacing:0;writing-mode:lr-tb;text-anchor:start;fill:#000;fill-opacity:1;stroke:none;font-family:DejaVu Sans;-inkscape-font-specification:Sans" id="text3049" x="460.63" y="768.898"><tspan id="tspan3051" x="460.63" y="768.898">60 Hz Strobe</tspan></text><text xml:space="preserve" style="font-size:24px;font-style:normal;font-variant:normal;font-weight:400;font-stretch:normal;text-align:start;line-height:125%;letter-spacing:0;word-spacing:0;writing-mode:lr-tb;text-anchor:start;fill:#000;fill-opacity:1;stroke:none;font-family:DejaVu Sans;-inkscape-font-specification:Sans" id="text3053" x="460.63" y="804.331"><tspan id="tspan3055" x="460.63" y="804.331">Slow Variable Strobe</tspan></text><text xml:space="preserve" style="font-size:24px;font-style:normal;font-variant:normal;font-weight:400;font-stretch:normal;text-align:start;line-height:125%;letter-spacing:0;word-spacing:0;writing-mode:lr-tb;text-anchor:start;fill:#000;fill-opacity:1;stroke:none;font-family:DejaVu Sans;-inkscape-font-specification:Sans" id="text3057" x="460.63" y="839.569"><tspan id="tspan3059" x="460.63" y="839.569">Fast Variable Strobe</tspan></text><text xml:space="preserve" style="font-size:24px;font-style:normal;font-variant:normal;font-weight:400;font-stretch:normal;text-align:start;line-height:125%;letter-spacing:0;word-spacing:0;writing-mode:lr-tb;text-anchor:start;fill:#000;fill-opacity:1;stroke:none;font-family:DejaVu Sans;-inkscape-font-specification:Sans" id="text3061" x="460.329" y="627.165"><tspan id="tspan3063" x="460.329" y="627.165">Battcheck</tspan></text><path style="fill:none;stroke:#000;stroke-width:2;stroke-miterlimit:4;stroke-opacity:1;stroke-dasharray:none;stroke-dashoffset:0;marker-end:url(#Arrow1Mend)" id="path4287" d="m 336.63335,461.13095 c 37.37564,-18.68783 45.53494,-32.57887 64.72784,-57.07435"/><path style="fill:none;stroke:#000;stroke-width:2;stroke-miterlimit:4;stroke-opacity:1;stroke-dasharray:none;stroke-dashoffset:0;marker-end:url(#Arrow1Mend)" id="path4841" d="m 413.65747,379.81366 c 12.37436,-27.7792 16.41498,-62.62946 7.57615,-98.74242"/><path style="fill:none;stroke:#000;stroke-width:2;stroke-miterlimit:4;stroke-opacity:1;stroke-dasharray:none;stroke-dashoffset:0;marker-end:url(#Arrow1Mend)" id="path5027" d="M 411.38463,252.2819 C 391.93919,212.63341 380.0699,198.06313 338.14857,179.29838"/><path style="fill:none;stroke:#000;stroke-width:2;stroke-miterlimit:4;stroke-opacity:1;stroke-dasharray:none;stroke-dashoffset:0;marker-end:url(#Arrow1Mend)" id="path5213" d="m 269.73044,177.27808 c -34.86996,13.38452 -57.09332,25.15593 -80.83191,74.24621"/><path style="fill:none;stroke:#000;stroke-width:2;stroke-miterlimit:4;stroke-opacity:1;stroke-dasharray:none;stroke-dashoffset:0;marker-end:url(#Arrow1Mend)" id="path5399" d="m 179.30208,279.55602 c -5.05076,33.58756 -9.59644,51.26525 4.79823,93.94419"/><path style="fill:none;stroke:#000;stroke-width:2;stroke-miterlimit:4;stroke-opacity:1;stroke-dasharray:none;stroke-dashoffset:0;marker-end:url(#Arrow1Mend)" id="path5585" d="m 200.63207,407.34031 c 9.09137,18.18275 30.44033,37.37565 62.26014,47.22464"/><path style="fill:none;stroke:#000;stroke-width:2;stroke-miterlimit:4;stroke-opacity:1;stroke-dasharray:4,4;stroke-dashoffset:0;marker-end:url(#Arrow1Mend)" id="path5771" d="m 298.98052,475.11693 c -4.79822,29.29442 -25.73426,6.76161 -36.34086,54.99639"/><path style="fill:none;stroke:#000;stroke-width:2;stroke-miterlimit:4;stroke-opacity:1;stroke-dasharray:4,4;stroke-dashoffset:0;marker-end:url(#Arrow1Mend)" id="path5957" d="m 262.63966,562.4382 c -1.01015,16.16244 -1.01015,39.39595 -1.01015,39.39595"/><path style="fill:none;stroke:#000;stroke-width:2;stroke-miterlimit:4;stroke-opacity:1;stroke-dasharray:4,4;stroke-dashoffset:0;marker-end:url(#Arrow1Mend)" id="path6143" d="m 261.62951,631.12857 0,39.39595"/><path style="fill:none;stroke:#000;stroke-width:2;stroke-miterlimit:4;stroke-opacity:1;stroke-dasharray:4,4;stroke-dashoffset:0;marker-end:url(#Arrow1Mend)" id="path6329" d="m 262.63966,704.86971 0,39.39595"/><path style="fill:none;stroke:#000;stroke-width:2;stroke-miterlimit:4;stroke-opacity:1;stroke-dasharray:4,4;stroke-dashoffset:0;marker-end:url(#Arrow1Mend)" id="path6515" d="M 193.94929,762.4484 C 70.866141,702.74329 78.453027,514.36681 262.72181,466.12743"/><path style="fill:none;stroke:#000;stroke-width:2;stroke-miterlimit:4;stroke-opacity:1;stroke-dasharray:4,4;stroke-dashoffset:0;marker-end:url(#Arrow1Mend)" id="path6701" d="m 704.09225,835.42449 c 9.81067,3.28299 56.82014,-24.73703 9.05103,-31.80809"/><path style="fill:none;stroke:#000;stroke-width:2;stroke-miterlimit:4;stroke-opacity:1;stroke-dasharray:4,4;stroke-dashoffset:0;marker-end:url(#Arrow1Mend)" id="path6887" d="m 710.92513,794.59996 c 55.05332,-3.283 -36.13016,-25.70239 -89.16317,-25.70239"/><path style="fill:none;stroke:#000;stroke-width:2;stroke-miterlimit:4;stroke-opacity:1;stroke-dasharray:4,4;stroke-dashoffset:0;marker-end:url(#Arrow1Mend)" id="path7259" d="m 619.73114,759.89764 c 40.4061,1.01016 47.50171,-25.36167 1.50036,-27.69253"/><path style="fill:none;stroke:#000;stroke-width:2;stroke-miterlimit:4;stroke-opacity:1;stroke-dasharray:4,4;stroke-dashoffset:0;marker-end:url(#Arrow1Mend)" id="path7445" d="m 618.42512,723.82801 c 44.44671,2.0203 84.73896,-20.20304 3.92676,-27.27412"/><path style="fill:none;stroke:#000;stroke-width:2;stroke-miterlimit:4;stroke-opacity:1;stroke-dasharray:4,4;stroke-dashoffset:0;marker-end:url(#Arrow1Mend)" id="path7631" d="m 620.14776,688.59522 c 28.28427,-1.01014 62.86404,-17.99509 8.3158,-27.24157"/><path style="fill:none;stroke:#000;stroke-width:2;stroke-miterlimit:4;stroke-opacity:1;stroke-dasharray:4,4;stroke-dashoffset:0;marker-end:url(#Arrow1Mend)" id="path7817" d="m 627.45341,653.23989 c 35.35533,-11.11168 28.55221,-24.64599 -42.15847,-27.67645"/><path style="fill:none;stroke:#000;stroke-width:2;stroke-miterlimit:4;stroke-opacity:1;stroke-dasharray:4,4;stroke-dashoffset:0;marker-end:url(#Arrow1Mend)" id="path8003" d="m 584.99906,615.32327 c 42.96738,0.89811 165.67172,-17.36458 83.09174,-26.20305"/><path style="fill:none;stroke:#000;stroke-width:2;stroke-miterlimit:4;stroke-opacity:1;stroke-dasharray:4,4;stroke-dashoffset:0;marker-end:url(#Arrow1Mend)" id="path8189" d="m 670.29495,578.77396 c 37.37564,0 55.79054,-24.41698 -1.24476,-26.43728"/><path style="fill:none;stroke:#000;stroke-width:2;stroke-miterlimit:4;stroke-opacity:1;stroke-dasharray:4,4;stroke-dashoffset:0;marker-end:url(#Arrow1Mend)" id="path8375" d="m 669.70321,543.54116 c 33.33503,2.0203 52.08848,-17.05004 -3.46991,-24.1211"/><path style="fill:none;stroke:#000;stroke-width:2;stroke-miterlimit:4;stroke-opacity:1;stroke-dasharray:4,4;stroke-dashoffset:0;marker-end:url(#Arrow1Mend)" id="path8561" d="m 665.04984,504.85951 c 24.24366,-38.3858 -212.0335,-55.87286 -274.1208,19.96941 -55.74665,68.09689 -67.99079,321.20961 65.65991,307.06747"/><path style="fill:none;stroke:#000;stroke-width:2;stroke-miterlimit:4;stroke-opacity:1;stroke-dasharray:4,4;stroke-dashoffset:0;marker-end:url(#Arrow1Mend)" id="path8747" d="m 205.06097,374.00528 c 26.26397,-28.28426 24.94325,-47.47717 9.09137,-88.89342"/><path style="fill:none;stroke:#000;stroke-width:2;stroke-miterlimit:4;stroke-opacity:1;stroke-dasharray:4,4;stroke-dashoffset:0;marker-end:url(#Arrow1Mend)" id="path8933" d="m 216.17265,251.77683 c 37.37564,-6.06092 52.52793,-21.2132 56.56854,-60.60916"/><path style="fill:none;stroke:#000;stroke-width:2;stroke-miterlimit:4;stroke-opacity:1;stroke-dasharray:4,4;stroke-dashoffset:0;marker-end:url(#Arrow1Mend)" id="path8935" d="m 331.33004,190.15752 c -0.0774,31.46947 4.97339,54.31576 44.44671,65.65992"/><path style="fill:none;stroke:#000;stroke-width:2;stroke-miterlimit:4;stroke-opacity:1;stroke-dasharray:4,4;stroke-dashoffset:0;marker-end:url(#Arrow1Mend)" id="path9121" d="m 389.91889,280.0611 c -18.18239,29.29442 -22.30145,57.57869 1.01015,94.95434"/><path style="fill:none;stroke:#000;stroke-width:2;stroke-miterlimit:4;stroke-opacity:1;stroke-dasharray:4,4;stroke-dashoffset:0;marker-end:url(#Arrow1Mend)" id="path9307" d="m 382.84782,398.79235 c -30.30458,1.4769 -44.44671,25.72056 -48.48732,54.00483"/><path style="fill:none;stroke:#000;stroke-width:2;stroke-miterlimit:4;stroke-opacity:1;stroke-dasharray:none;stroke-dashoffset:0;marker-end:url(#Arrow1Mend)" id="path9677" d="m 324.76404,547.28591 c 27.04129,-1.01016 35.25637,-34.93692 2.74585,-71.15883"/><path style="fill:none;stroke:#000;stroke-width:2;stroke-miterlimit:4;stroke-opacity:1;stroke-dasharray:none;stroke-dashoffset:0;marker-end:url(#Arrow1Mend)" id="path9863" d="m 324.76405,618.50167 c 57.57868,1.01015 30.88887,-97.9882 131.65159,-110.6151"/><path style="fill:none;stroke:#000;stroke-width:2;stroke-miterlimit:4;stroke-opacity:1;stroke-dasharray:none;stroke-dashoffset:0;marker-end:url(#Arrow1Mend)" id="path10049" d="m 324.25897,688.70727 c 65.50481,1.01015 39.11496,1.79292 132.04899,0.78277"/><path style="fill:none;stroke:#000;stroke-width:2;stroke-miterlimit:4;stroke-opacity:1;stroke-dasharray:none;stroke-dashoffset:0;marker-end:url(#Arrow1Mend)" id="path10235" d="m 325.26912,761.43825 c 59.599,0 29.7308,-107.2856 131.50367,-107.53813"/><path style="fill:none;stroke:#000;stroke-width:2;stroke-miterlimit:4;stroke-opacity:1;stroke-dasharray:none;stroke-dashoffset:0;marker-end:url(#Arrow1Mend)" id="path10979" d="m 459.11433,623.55243 c -33.33503,3.03045 -33.33504,12.87944 -2.0203,20.96066"/><text xml:space="preserve" style="font-size:36px;font-style:normal;font-variant:normal;font-weight:400;font-stretch:normal;text-align:start;line-height:125%;letter-spacing:0;word-spacing:0;writing-mode:lr-tb;text-anchor:start;fill:#000;fill-opacity:1;stroke:none;font-family:DejaVu Sans;-inkscape-font-specification:Sans" id="text12114" x="268.701" y="343.701"><tspan id="tspan12116" x="268.701" y="343.701">OFF</tspan></text><path style="fill:none;stroke:#000;stroke-width:3.5;stroke-miterlimit:4;stroke-opacity:1;stroke-dasharray:none;stroke-dashoffset:0;marker-end:url(#Arrow1Mend)" id="path12118" d="m 304.05592,364.91391 -1.01015,82.83251"/><path style="fill:none;stroke:#000;stroke-width:3.5;stroke-miterlimit:4;stroke-opacity:1;stroke-dasharray:none;stroke-dashoffset:0" id="path12488" d="m 437.39605,318.99142 c 0,18.96833 -19.89947,34.34519 -44.44671,34.34519 -24.54724,0 -44.44671,-15.37686 -44.44671,-34.34519 0,-18.96832 19.89947,-34.34518 44.44671,-34.34518 24.54724,0 44.44671,15.37686 44.44671,34.34518 z" transform="translate(-88.893424,11.577288)"/><path style="fill:none;stroke:#000;stroke-width:2;stroke-miterlimit:4;stroke-opacity:1;stroke-dasharray:none;stroke-dashoffset:0;marker-end:url(#Arrow1Mend)" id="path12490" d="m 531.49608,237.4015 138.50121,0"/><path style="fill:none;stroke:#000;stroke-width:2;stroke-miterlimit:4;stroke-opacity:1;stroke-dasharray:4,4;stroke-dashoffset:0;marker-end:url(#Arrow1Mend)" id="path12676" d="m 532.25521,343.70071 137.7484,0"/><text xml:space="preserve" style="font-size:24px;font-style:normal;font-variant:normal;font-weight:400;font-stretch:normal;text-align:center;line-height:125%;letter-spacing:0;word-spacing:0;writing-mode:lr-tb;text-anchor:middle;fill:#000;fill-opacity:1;stroke:none;font-family:DejaVu Sans;-inkscape-font-specification:Sans" id="text12862" x="602.362" y="272.835"><tspan id="tspan12864" x="602.362" y="272.835">Short press</tspan><tspan id="tspan13161" x="602.362" y="302.835">(&lt; 0.5s)</tspan></text><text xml:space="preserve" style="font-size:24px;font-style:normal;font-variant:normal;font-weight:400;font-stretch:normal;text-align:center;line-height:125%;letter-spacing:0;word-spacing:0;writing-mode:lr-tb;text-anchor:middle;fill:#000;fill-opacity:1;stroke:none;font-family:DejaVu Sans;-inkscape-font-specification:Sans" id="text12866" x="602.362" y="378.666"><tspan id="tspan12868" x="602.362" y="378.666">Medium press</tspan><tspan id="tspan13159" x="602.362" y="408.666">(0.5s to 1.5s)</tspan></text><path style="fill:none;stroke:#000;stroke-width:2;stroke-miterlimit:4;stroke-opacity:1;stroke-dasharray:none;stroke-dashoffset:0;marker-end:url(#Arrow1Mend)" id="path12870" d="M 459.11433,839.76371 C 351.02801,864.47375 716.87899,910.62985 742.05422,815.3961 764.47684,730.57498 766.61096,438.92211 667.47805,511.15502"/><path style="fill:none;stroke:#000;stroke-width:2;stroke-miterlimit:4;stroke-opacity:1;stroke-dasharray:none;stroke-dashoffset:0;marker-end:url(#Arrow1Mend)" id="path10979-6" d="m 459.53815,518.27546 c -33.33502,3.03045 -33.33503,12.87944 -2.0203,20.96066"/><path style="fill:none;stroke:#000;stroke-width:2;stroke-miterlimit:4;stroke-opacity:1;stroke-dasharray:none;stroke-dashoffset:0;marker-end:url(#Arrow1Mend)" id="path10979-3" d="m 459.03308,553.37827 c -33.33502,3.03045 -33.33503,12.87944 -2.0203,20.96066"/><path style="fill:none;stroke:#000;stroke-width:2;stroke-miterlimit:4;stroke-opacity:1;stroke-dasharray:none;stroke-dashoffset:0;marker-end:url(#Arrow1Mend)" id="path10979-0" d="m 458.52801,588.22853 c -33.33503,3.03045 -33.33504,12.87944 -2.0203,20.96066"/><path style="fill:none;stroke:#000;stroke-width:2;stroke-miterlimit:4;stroke-opacity:1;stroke-dasharray:none;stroke-dashoffset:0;marker-end:url(#Arrow1Mend)" id="path10979-8" d="m 459.03308,660.2019 c -33.33502,3.03045 -33.33503,12.87944 -2.0203,20.96066"/><path style="fill:none;stroke:#000;stroke-width:2;stroke-miterlimit:4;stroke-opacity:1;stroke-dasharray:none;stroke-dashoffset:0;marker-end:url(#Arrow1Mend)" id="path10979-2" d="m 459.28562,695.05216 c -33.33503,3.03045 -33.33504,12.87944 -2.0203,20.96066"/><path style="fill:none;stroke:#000;stroke-width:2;stroke-miterlimit:4;stroke-opacity:1;stroke-dasharray:none;stroke-dashoffset:0;marker-end:url(#Arrow1Mend)" id="path10979-82" d="m 459.28562,730.66004 c -33.33503,3.03045 -33.33504,12.87944 -2.0203,20.96066"/><path style="fill:none;stroke:#000;stroke-width:2;stroke-miterlimit:4;stroke-opacity:1;stroke-dasharray:none;stroke-dashoffset:0;marker-end:url(#Arrow1Mend)" id="path10979-9" d="m 459.03309,766.77299 c -33.33503,3.03045 -33.33504,12.87944 -2.0203,20.96066"/><path style="fill:none;stroke:#000;stroke-width:2;stroke-miterlimit:4;stroke-opacity:1;stroke-dasharray:none;stroke-dashoffset:0;marker-end:url(#Arrow1Mend)" id="path10979-1" d="m 459.03309,801.87579 c -33.33503,3.03045 -33.33504,12.87944 -2.0203,20.96066"/><text xml:space="preserve" style="font-size:48px;font-style:normal;font-variant:normal;font-weight:700;font-stretch:normal;text-align:start;line-height:125%;letter-spacing:0;word-spacing:0;writing-mode:lr-tb;text-anchor:start;fill:#000;fill-opacity:1;stroke:none;font-family:DejaVu Sans;-inkscape-font-specification:DejaVu Sans Bold" id="text13163" x="405.404" y="201.968"><tspan id="tspan13165" x="405.404" y="201.968">Cypreus2 UI</tspan></text></g></svg>